<?xml version="1.0" standalone="no"?>
<!DOCTYPE svg PUBLIC "-//W3C//DTD SVG 20010904//EN"
 "http://www.w3.org/TR/2001/REC-SVG-20010904/DTD/svg10.dtd">
<svg version="1.0" xmlns="http://www.w3.org/2000/svg"
 width="1717.000000pt" height="506.000000pt" viewBox="0 0 1717.000000 506.000000"
 preserveAspectRatio="xMidYMid meet">

<g transform="translate(0.000000,506.000000) scale(0.100000,-0.100000)"
fill="#000000" stroke="none">
<path d="M14411 5038 c-58 -29 -101 -95 -101 -157 0 -32 62 -234 211 -686 116
-352 240 -730 276 -840 35 -110 68 -209 73 -220 20 -46 200 -610 200 -626 0
-10 -21 -76 -46 -146 -25 -70 -57 -159 -70 -198 -14 -38 -30 -81 -36 -95 -5
-14 -34 -95 -64 -180 -30 -85 -72 -202 -94 -260 -21 -58 -105 -289 -186 -515
-80 -226 -184 -513 -229 -640 -97 -271 -100 -281 -85 -335 19 -71 109 -140
184 -140 28 0 103 40 138 73 18 18 78 73 133 122 55 49 105 94 111 100 18 18
204 187 329 301 123 112 198 180 246 224 15 14 42 38 60 54 19 16 86 77 149
135 63 59 162 149 220 201 58 52 134 121 170 155 124 114 185 170 290 265 58
52 125 114 150 137 25 23 54 50 66 60 12 10 63 56 114 103 51 47 98 90 104 95
22 20 241 220 252 230 6 6 39 35 73 65 141 124 159 226 57 325 -133 129 -297
284 -376 359 -52 48 -171 161 -265 250 -93 88 -208 197 -254 241 -47 44 -126
119 -176 167 -49 47 -101 96 -115 108 -14 11 -59 53 -100 93 -42 40 -151 144
-244 232 -93 88 -188 178 -211 200 -208 198 -365 347 -390 369 -16 15 -106
100 -198 189 -93 89 -187 172 -210 184 -52 28 -99 28 -156 1z"/>
<path d="M3815 3900 c-431 -49 -788 -263 -937 -562 -67 -134 -83 -211 -83
-393 0 -120 5 -176 18 -225 48 -177 142 -282 342 -383 158 -79 496 -160 887
-211 326 -44 410 -62 503 -109 79 -40 121 -75 149 -127 26 -48 28 -59 24 -135
-4 -69 -9 -89 -34 -129 -40 -66 -141 -139 -239 -175 -133 -47 -200 -56 -435
-56 -194 0 -223 3 -295 23 -180 51 -290 131 -369 267 -81 137 -101 145 -372
145 -235 0 -274 -18 -274 -125 1 -157 81 -337 211 -479 235 -255 647 -406
1112 -406 675 0 1179 293 1290 752 71 290 -8 589 -206 773 -96 90 -111 100
-252 171 -204 102 -386 140 -800 169 -221 15 -283 24 -385 52 -119 33 -224
108 -249 176 -17 44 -13 127 9 174 45 100 175 188 340 229 109 28 383 25 492
-4 149 -40 251 -113 349 -248 87 -119 87 -119 344 -119 236 0 250 4 282 70 15
31 15 41 0 116 -22 110 -98 264 -175 353 -144 165 -384 308 -625 371 -164 43
-455 64 -622 45z"/>
<path d="M6935 3900 c-341 -24 -629 -145 -842 -353 -40 -40 -73 -77 -73 -84 0
-7 -5 -13 -10 -13 -17 0 -107 -147 -150 -245 -46 -105 -84 -241 -106 -375 -33
-207 -29 -788 7 -989 34 -187 130 -423 224 -546 103 -137 240 -252 385 -325
99 -50 264 -105 375 -126 144 -27 527 -27 670 0 322 60 596 219 759 441 131
177 205 373 241 630 33 240 27 766 -11 967 -58 306 -207 574 -412 739 -264
213 -626 309 -1057 279z m371 -590 c197 -50 344 -166 427 -340 70 -146 78
-198 84 -541 7 -409 -8 -534 -85 -689 -97 -197 -295 -323 -548 -349 -405 -41
-715 150 -805 496 -46 180 -48 731 -3 928 67 291 286 479 604 519 70 8 249 -5
326 -24z"/>
<path d="M38 3820 l-38 -41 0 -196 c0 -183 1 -198 22 -230 38 -62 42 -63 508
-63 l420 0 0 -1161 c0 -1273 -3 -1204 58 -1246 23 -16 54 -18 227 -21 222 -4
255 2 300 48 l30 31 3 1174 2 1174 433 3 c464 3 451 2 492 56 18 24 20 46 23
191 5 214 0 246 -45 288 l-34 33 -1181 0 -1181 0 -39 -40z"/>
<path d="M8998 3844 c-62 -33 -58 61 -58 -1485 l0 -1412 25 -33 c36 -47 73
-54 280 -54 207 0 244 7 280 54 l25 33 0 546 0 547 665 0 c731 0 708 -2 740
60 12 23 15 70 15 228 0 187 -1 201 -21 226 -46 58 -20 56 -739 56 l-660 0 0
340 0 340 740 0 c816 0 791 -2 830 62 18 30 20 50 20 221 0 209 -7 239 -59
270 -27 16 -105 17 -1043 17 -876 -1 -1017 -3 -1040 -16z"/>
<path d="M11485 3838 c-48 -37 -55 -71 -55 -255 0 -93 4 -183 10 -202 11 -40
52 -77 93 -85 16 -3 213 -6 438 -6 l409 0 2 -1172 c3 -1155 3 -1173 23 -1200
38 -50 52 -53 285 -53 234 0 253 4 287 54 17 24 18 99 21 1198 l2 1172 433 3
c552 4 510 -17 515 263 4 205 -3 242 -52 280 l-33 25 -1175 0 -1175 0 -28 -22z"/>
</g>
</svg>
